<svg width="512" height="512" viewBox="0 0 512 512" xmlns="http://www.w3.org/2000/svg">
  <!-- Background Circle -->
  <circle cx="256" cy="256" r="240" fill="#10B981" stroke="#0D9488" stroke-width="8"/>
  
  <!-- Rural Icon - Wheat/Plant -->
  <g transform="translate(256,256)">
    <!-- Stem -->
    <rect x="-4" y="20" width="8" height="120" fill="#065F46" rx="4"/>
    
    <!-- Wheat Grains -->
    <ellipse cx="-20" cy="-40" rx="12" ry="25" fill="#F59E0B" transform="rotate(-15)"/>
    <ellipse cx="0" cy="-50" rx="12" ry="25" fill="#F59E0B"/>
    <ellipse cx="20" cy="-40" rx="12" ry="25" fill="#F59E0B" transform="rotate(15)"/>
    
    <ellipse cx="-15" cy="-80" rx="10" ry="20" fill="#FBBF24" transform="rotate(-10)"/>
    <ellipse cx="0" cy="-90" rx="10" ry="20" fill="#FBBF24"/>
    <ellipse cx="15" cy="-80" rx="10" ry="20" fill="#FBBF24" transform="rotate(10)"/>
    
    <!-- Leaves -->
    <ellipse cx="-30" cy="0" rx="8" ry="30" fill="#059669" transform="rotate(-30)"/>
    <ellipse cx="30" cy="0" rx="8" ry="30" fill="#059669" transform="rotate(30)"/>
    
    <!-- Chart Elements (representing analysis) -->
    <g transform="translate(60, -40)" opacity="0.8">
      <rect x="0" y="20" width="8" height="20" fill="#FFFFFF" rx="2"/>
      <rect x="12" y="10" width="8" height="30" fill="#FFFFFF" rx="2"/>
      <rect x="24" y="0" width="8" height="40" fill="#FFFFFF" rx="2"/>
    </g>
    
    <!-- Money/Finance Symbol -->
    <g transform="translate(-80, -20)" opacity="0.8">
      <circle cx="20" cy="20" r="18" fill="#FFFFFF" opacity="0.9"/>
      <text x="20" y="28" text-anchor="middle" font-family="Arial, sans-serif" font-size="20" font-weight="bold" fill="#10B981">R$</text>
    </g>
  </g>
  
  <!-- Tech/AI Elements -->
  <g opacity="0.6">
    <!-- Circuit pattern in corners -->
    <circle cx="80" cy="80" r="3" fill="#FFFFFF"/>
    <circle cx="432" cy="80" r="3" fill="#FFFFFF"/>
    <circle cx="80" cy="432" r="3" fill="#FFFFFF"/>
    <circle cx="432" cy="432" r="3" fill="#FFFFFF"/>
    
    <line x1="80" y1="80" x2="100" y2="80" stroke="#FFFFFF" stroke-width="2"/>
    <line x1="80" y1="80" x2="80" y2="100" stroke="#FFFFFF" stroke-width="2"/>
    
    <line x1="432" y1="80" x2="412" y2="80" stroke="#FFFFFF" stroke-width="2"/>
    <line x1="432" y1="80" x2="432" y2="100" stroke="#FFFFFF" stroke-width="2"/>
    
    <line x1="80" y1="432" x2="100" y2="432" stroke="#FFFFFF" stroke-width="2"/>
    <line x1="80" y1="432" x2="80" y2="412" stroke="#FFFFFF" stroke-width="2"/>
    
    <line x1="432" y1="432" x2="412" y2="432" stroke="#FFFFFF" stroke-width="2"/>
    <line x1="432" y1="432" x2="432" y2="412" stroke="#FFFFFF" stroke-width="2"/>
  </g>
</svg>